<svg width="1600" height="150" xmlns="http://www.w3.org/2000/svg">
 <g>
  <title>Layer 1</title>
  <g id="svg_2">
   <rect stroke-width="0" stroke="#000" transform="matrix(0.708004 -0.707107 0.708004 0.707107 194.865 621.886)" fill="#fff" x="766" y="62" width="164" height="28" id="svg_10"/>
   <rect stroke-width="0" stroke="#000" transform="matrix(0.708004 0.707107 -0.708004 0.707107 330.635 -645.249)" fill="#fff" x="862" y="62" width="164" height="28" id="svg_11"/>
   <rect stroke-width="0" stroke="#000" transform="matrix(0.708004 -0.707107 0.708004 0.707107 251.172 757.651)" fill="#fff" x="958" y="62" width="164" height="28" id="svg_12"/>
   <rect stroke-width="0" stroke="#000" transform="matrix(0.708004 0.707107 -0.708004 0.707107 386.942 -781.013)" fill="#fff" x="1054" y="62" width="164" height="28" id="svg_13"/>
   <rect stroke-width="0" stroke="#000" transform="matrix(0.708004 -0.707107 0.708004 0.707107 307.479 893.415)" fill="#fff" x="1150" y="62" width="164" height="28" id="svg_14"/>
   <rect stroke-width="0" stroke="#000" transform="matrix(0.708004 0.707107 -0.708004 0.707107 443.249 -916.778)" fill="#fff" x="1246" y="62" width="164" height="28" id="svg_15"/>
   <rect stroke-width="0" stroke="#000" transform="matrix(0.708004 -0.707107 0.708004 0.707107 363.492 1028.47)" fill="#fff" x="1341.70621" y="62.70621" width="164" height="28" id="svg_16"/>
   <rect stroke-width="0" stroke="#000" transform="matrix(0.708004 0.707107 -0.708004 0.707107 499.556 -1052.54)" fill="#fff" x="1438" y="62" width="164" height="28" id="svg_17"/>
   <rect stroke-width="0" stroke="#000" transform="matrix(0.708004 -0.707107 0.708004 0.707107 -30.3625 78.8284)" fill="#fff" x="-2" y="62" width="164" height="28" id="svg_19"/>
   <rect stroke-width="0" stroke="#000" transform="matrix(0.708004 0.707107 -0.708004 0.707107 105.408 -102.191)" fill="#fff" x="94" y="62" width="164" height="28" id="svg_20"/>
   <rect stroke-width="0" stroke="#000" transform="matrix(0.708004 -0.707107 0.708004 0.707107 25.9444 214.593)" fill="#fff" x="190" y="62" width="164" height="28" id="svg_21"/>
   <rect stroke-width="0" stroke="#000" transform="matrix(0.708004 0.707107 -0.708004 0.707107 161.714 -237.955)" fill="#fff" x="286" y="62" width="164" height="28" id="svg_22"/>
   <rect stroke-width="0" stroke="#000" transform="matrix(0.708004 -0.707107 0.708004 0.707107 82.2512 350.357)" fill="#fff" x="382" y="62" width="164" height="28" id="svg_23"/>
   <rect stroke-width="0" stroke="#000" transform="matrix(0.708004 0.707107 -0.708004 0.707107 218.021 -373.72)" fill="#fff" x="478" y="62" width="164" height="28" id="svg_24"/>
   <rect stroke-width="0" stroke="#000" transform="matrix(0.708004 -0.707107 0.708004 0.707107 138.558 486.122)" fill="#fff" x="574" y="62" width="164" height="28" id="svg_25"/>
   <rect stroke-width="0" stroke="#000" transform="matrix(0.708004 0.707107 -0.708004 0.707107 274.328 -509.484)" fill="#fff" x="670" y="62" width="164" height="28" id="svg_26"/>
  </g>
 </g>

</svg>
